<svg width="16" height="16" viewBox="0 0 16 16" fill="none" xmlns="http://www.w3.org/2000/svg">
<path d="M0.5 2.5V2.5C0.5 1.39543 1.39543 0.5 2.5 0.5L13.9286 0.5C13.9949 0.5 14.0281 0.5 14.056 0.503144C14.2878 0.529263 14.4707 0.712208 14.4969 0.944018C14.5 0.971921 14.5 1.00509 14.5 1.07143V1.07143C14.5 1.46946 14.5 1.66848 14.4811 1.83589C14.3244 3.22675 13.2268 4.32442 11.8359 4.48114C11.6685 4.5 11.4695 4.5 11.0714 4.5H11M0.5 2.5V2.5C0.5 3.60457 1.39543 4.5 2.5 4.5L13.5 4.5C14.4428 4.5 14.9142 4.5 15.2071 4.79289C15.5 5.08579 15.5 5.55719 15.5 6.5V8.5M0.5 2.5L0.5 11.5C0.5 13.3856 0.5 14.3284 1.08579 14.9142C1.67157 15.5 2.61438 15.5 4.5 15.5L13.5 15.5C14.4428 15.5 14.9142 15.5 15.2071 15.2071C15.5 14.9142 15.5 14.4428 15.5 13.5V12.5M15.5 12.5H13.5C12.5572 12.5 12.0858 12.5 11.7929 12.2071C11.5 11.9142 11.5 11.4428 11.5 10.5V10.5C11.5 9.55719 11.5 9.08579 11.7929 8.79289C12.0858 8.5 12.5572 8.5 13.5 8.5H15.5M15.5 12.5L15.5 8.5" stroke="#DD3700"/>
</svg>
