<svg width="150" height="28" viewBox="0 0 150 28" fill="none" xmlns="http://www.w3.org/2000/svg">
<g clip-path="url(#clip0_66_18)">
<path d="M49.9524 10.6938C49.1107 12.0373 49.1107 13.747 49.9524 15.0905L50.5928 16.1135H49.2752C47.8841 16.1135 46.5893 16.8319 45.8456 18.0152H51.7862C52.4861 19.1315 53.7057 19.8077 55.0163 19.8077H55.6689L49.9524 10.6938Z" fill="#999999"/>
<path d="M48.4914 7.81134L40.9673 19.8059H41.648C43.0128 19.8059 44.2832 19.1016 45.0111 17.9394L48.4914 12.3912C49.3698 10.9913 49.3698 9.20941 48.4914 7.81134Z" fill="#999999"/>
<path d="M143.972 10.6938C143.13 12.0373 143.13 13.747 143.972 15.0905L144.612 16.1135H143.295C141.904 16.1135 140.609 16.8319 139.865 18.0152H145.806C146.505 19.1315 147.725 19.8077 149.036 19.8077H149.688L143.972 10.6938Z" fill="#999999"/>
<path d="M142.511 7.81134L134.987 19.8059H135.667C137.032 19.8059 138.303 19.1016 139.031 17.9394L142.511 12.3912C143.389 10.9913 143.389 9.20941 142.511 7.81134Z" fill="#999999"/>
<path d="M90.1397 14.2488L95.8283 8.41705C93.8528 8.41705 91.9613 9.22702 90.5929 10.6603L87.2596 14.1467V8.41705C85.795 8.41705 84.6087 9.61087 84.6087 11.0847V19.8077C86.0732 19.8077 87.2596 18.6138 87.2596 17.14V14.6591L90.9044 17.6207C92.6454 19.0364 94.8169 19.8077 97.0549 19.8077L90.1415 14.2506L90.1397 14.2488Z" fill="#999999"/>
<path d="M124.469 19.8059C125.933 19.8059 127.121 18.6103 127.121 17.1365V8.41705C125.657 8.41705 124.469 9.61263 124.469 11.0864V19.8077V19.8059Z" fill="#999999"/>
<path d="M111.881 8.41705C114.051 8.41705 115.809 10.1867 115.809 12.37V12.3824C115.809 14.5587 114.056 16.3213 111.895 16.3213H108.395V17.1383C108.395 18.6121 107.209 19.8059 105.744 19.8059V15.0377C105.744 14.6961 106.019 14.4196 106.358 14.4196H111.228C112.378 14.4196 113.305 13.4617 113.265 12.2961C113.226 11.185 112.285 10.3187 111.181 10.3187H107.662C106.273 10.3187 104.981 9.60031 104.241 8.41705H111.881Z" fill="#999999"/>
<path d="M71.8843 15.8212C73.3314 15.2877 74.3673 13.8914 74.3743 12.2503C74.383 10.1409 72.6035 8.41528 70.5073 8.41528H62.5317C63.2719 9.59854 64.5632 10.3169 65.9526 10.3169H69.9893C71.0234 10.3169 71.9018 11.1252 71.9368 12.164C71.9753 13.254 71.1074 14.1484 70.0331 14.1484H64.6577C64.3183 14.1484 64.0436 14.4249 64.0436 14.7665V19.8041C65.5081 19.8041 66.6945 18.6103 66.6945 17.1365V16.0519H68.9482L70.4548 17.6066C71.8651 19.0628 73.8003 19.8834 75.8213 19.8834L71.8843 15.8212Z" fill="#999999"/>
<path d="M8.04434 0.354248H19.4423C23.6888 0.354248 27.1373 3.85109 27.1373 8.15721V13.9361V19.715C27.1373 24.0211 23.6888 27.518 19.4423 27.518H8.04434C3.79778 27.518 0.349304 24.0211 0.349304 19.715V8.15721C0.349304 3.85109 3.79778 0.354248 8.04434 0.354248Z" fill="#999999"/>
<path d="M19.4423 0.530946C23.5895 0.530946 26.9631 3.95181 26.9631 8.15722V19.715C26.9631 23.9204 23.5895 27.3413 19.4423 27.3413H8.04436C3.89713 27.3413 0.523586 23.9204 0.523586 19.715V8.15722C0.523586 3.95181 3.89713 0.530946 8.04436 0.530946H19.4423ZM19.4423 0.177551H8.04436C3.69848 0.177551 0.175079 3.75038 0.175079 8.15722V19.715C0.175079 24.1218 3.69848 27.6947 8.04436 27.6947H19.4423C23.7882 27.6947 27.3116 24.1218 27.3116 19.715V8.15722C27.3116 3.75038 23.7882 0.177551 19.4423 0.177551Z" fill="#999999"/>
<path d="M13.7423 5.42017C11.5433 5.42017 9.54108 6.27892 8.04425 7.6819V5.42017C6.55264 5.42017 5.34506 6.64645 5.34506 8.15721V19.7132C5.34506 21.2258 6.55438 22.4503 8.04425 22.4503V20.1886C9.54108 21.5915 11.5433 22.4503 13.7423 22.4503C15.9414 22.4503 17.9436 21.5915 19.4404 20.1886V22.4503C20.932 22.4503 22.1396 21.224 22.1396 19.7132V13.9352C22.1396 9.23153 18.3792 5.42017 13.7423 5.42017ZM13.7423 19.3828C10.78 19.3828 8.37184 16.9391 8.37184 13.937C8.37184 10.9349 10.7818 8.49117 13.7423 8.49117C16.7029 8.49117 19.1128 10.9349 19.1128 13.937C19.1128 16.9391 16.7029 19.3828 13.7423 19.3828Z" fill="white"/>
<path d="M20.8763 7.98228C21.574 7.98228 22.1396 7.40873 22.1396 6.70122C22.1396 5.99371 21.574 5.42017 20.8763 5.42017C20.1785 5.42017 19.6129 5.99371 19.6129 6.70122C19.6129 7.40873 20.1785 7.98228 20.8763 7.98228Z" fill="white"/>
</g>
<defs>
<clipPath id="clip0_66_18">
<rect width="150" height="28" fill="white"/>
</clipPath>
</defs>
</svg>
