<svg width="130" height="24" viewBox="0 0 130 24" fill="none" xmlns="http://www.w3.org/2000/svg">
<path d="M42.6617 9.06128C41.9298 10.2223 41.9298 11.6999 42.6617 12.8609L43.2186 13.745H42.0728C40.8631 13.745 39.737 14.3659 39.0903 15.3884H44.2564C44.8651 16.3532 45.9257 16.9375 47.0654 16.9375H47.633L42.6617 9.06128Z" fill="white"/>
<path d="M41.3911 6.57031L34.8478 16.936H35.4398C36.6267 16.936 37.7314 16.3274 38.3644 15.323L41.3911 10.5282C42.155 9.31847 42.155 7.77853 41.3911 6.57031Z" fill="white"/>
<path d="M124.425 9.06128C123.693 10.2223 123.693 11.6999 124.425 12.8609L124.982 13.745H123.836C122.626 13.745 121.5 14.3659 120.853 15.3884H126.02C126.628 16.3532 127.689 16.9375 128.829 16.9375H129.396L124.425 9.06128Z" fill="white"/>
<path d="M123.154 6.57031L116.611 16.936H117.203C118.39 16.936 119.495 16.3274 120.128 15.323L123.154 10.5282C123.918 9.31847 123.918 7.77853 123.154 6.57031Z" fill="white"/>
<path d="M77.6102 12.1336L82.5572 7.09375C80.8392 7.09375 79.1943 7.79372 78.0043 9.03238L75.1055 12.0453V7.09375C73.8319 7.09375 72.8002 8.12545 72.8002 9.3991V16.9375C74.0738 16.9375 75.1055 15.9058 75.1055 14.6322V12.4881L78.2752 15.0476C79.7893 16.271 81.6777 16.9375 83.6239 16.9375L77.6117 12.1351L77.6102 12.1336Z" fill="white"/>
<path d="M107.464 16.936C108.738 16.936 109.771 15.9028 109.771 14.6291V7.09375C108.497 7.09375 107.464 8.12697 107.464 9.40062V16.9375V16.936Z" fill="white"/>
<path d="M96.5171 7.09375C98.404 7.09375 99.9333 8.62304 99.9333 10.5099V10.5206C99.9333 12.4014 98.4086 13.9246 96.5293 13.9246H93.4859V14.6307C93.4859 15.9043 92.4542 16.936 91.1806 16.936V12.8153C91.1806 12.5201 91.4195 12.2812 91.7147 12.2812H95.9495C96.9493 12.2812 97.7558 11.4534 97.7208 10.446C97.6873 9.48584 96.8686 8.73717 95.9084 8.73717H92.8483C91.6401 8.73717 90.5171 8.11632 89.8734 7.09375H96.5171Z" fill="white"/>
<path d="M61.7345 13.4924C62.9929 13.0314 63.8937 11.8247 63.8998 10.4065C63.9074 8.58347 62.3599 7.09222 60.5369 7.09222H53.6011C54.2447 8.1148 55.3678 8.73564 56.576 8.73564H60.0865C60.9858 8.73564 61.7497 9.4341 61.7801 10.3319C61.8136 11.2738 61.0588 12.0468 60.1245 12.0468H55.4499C55.1547 12.0468 54.9158 12.2857 54.9158 12.5809V16.9345C56.1895 16.9345 57.2212 15.9028 57.2212 14.6291V13.6918H59.1811L60.4913 15.0354C61.7177 16.2938 63.4007 17.003 65.1583 17.003L61.7345 13.4924Z" fill="white"/>
<path d="M6.87192 0.152161H16.8253C20.5336 0.152161 23.545 3.16357 23.545 6.87192V16.8253C23.545 20.5336 20.5336 23.545 16.8253 23.545H6.87192C3.16357 23.545 0.152161 20.5336 0.152161 16.8253V6.87192C0.152161 3.16357 3.16357 0.152161 6.87192 0.152161Z" fill="url(#paint0_linear_1_48)"/>
<path d="M16.8253 0.304337C20.4469 0.304337 23.3928 3.25032 23.3928 6.87193V16.8253C23.3928 20.4469 20.4469 23.3928 16.8253 23.3928H6.87192C3.25032 23.3928 0.304337 20.4469 0.304337 16.8253V6.87193C0.304337 3.25032 3.25032 0.304337 6.87192 0.304337H16.8253ZM16.8253 0H6.87192C3.07684 0 0 3.07685 0 6.87193V16.8253C0 20.6203 3.07684 23.6972 6.87192 23.6972H16.8253C20.6203 23.6972 23.6972 20.6203 23.6972 16.8253V6.87193C23.6957 3.07685 20.6203 0 16.8253 0Z" fill="#FF8900"/>
<path d="M11.8478 4.51483C9.92746 4.51483 8.17905 5.25437 6.87192 6.46259V4.51483C5.56936 4.51483 4.51483 5.57088 4.51483 6.87192V16.8237C4.51483 18.1263 5.57088 19.1808 6.87192 19.1808V17.2331C8.17905 18.4413 9.92746 19.1808 11.8478 19.1808C13.7682 19.1808 15.5166 18.4413 16.8237 17.2331V19.1808C18.1263 19.1808 19.1808 18.1248 19.1808 16.8237V11.8478C19.1808 7.7971 15.897 4.51483 11.8478 4.51483ZM11.8478 16.5392C9.26096 16.5392 7.158 14.4347 7.158 11.8493C7.158 9.26401 9.26249 7.15952 11.8478 7.15952C14.4332 7.15952 16.5377 9.26401 16.5377 11.8493C16.5377 14.4347 14.4332 16.5392 11.8478 16.5392Z" fill="white"/>
<path d="M18.7045 6.17347C19.3575 6.17347 19.8869 5.64412 19.8869 4.99113C19.8869 4.33813 19.3575 3.80878 18.7045 3.80878C18.0515 3.80878 17.5222 4.33813 17.5222 4.99113C17.5222 5.64412 18.0515 6.17347 18.7045 6.17347Z" fill="white"/>
<defs>
<linearGradient id="paint0_linear_1_48" x1="11.8478" y1="0.0867282" x2="11.8478" y2="23.4446" gradientUnits="userSpaceOnUse">
<stop stop-color="#FF3700"/>
<stop offset="1" stop-color="#FA7A01"/>
</linearGradient>
</defs>
</svg>
