<svg width="28" height="28" viewBox="0 0 28 28" fill="none" xmlns="http://www.w3.org/2000/svg">
<path d="M7.86923 0.176758H19.2671C23.5137 0.176758 26.9622 3.6736 26.9622 7.97972V13.7586V19.5375C26.9622 23.8436 23.5137 27.3405 19.2671 27.3405H7.86923C3.62267 27.3405 0.174194 23.8436 0.174194 19.5375V7.97972C0.174194 3.6736 3.62267 0.176758 7.86923 0.176758Z" fill="#999999"/>
<path d="M19.2672 0.353395C23.4144 0.353395 26.788 3.77426 26.788 7.97966V19.5375C26.788 23.7429 23.4144 27.1637 19.2672 27.1637H7.86929C3.72205 27.1637 0.348507 23.7429 0.348507 19.5375V7.97966C0.348507 3.77426 3.72205 0.353395 7.86929 0.353395H19.2672ZM19.2672 0H7.86929C3.5234 0 0 3.57283 0 7.97966V19.5375C0 23.9443 3.5234 27.5171 7.86929 27.5171H19.2672C23.6131 27.5171 27.1365 23.9443 27.1365 19.5375V7.97966C27.1365 3.57283 23.6131 0 19.2672 0Z" fill="#999999"/>
<path d="M13.5673 5.24268C11.3682 5.24268 9.36601 6.10143 7.86917 7.50441V5.24268C6.37756 5.24268 5.16998 6.46896 5.16998 7.97972V19.5357C5.16998 21.0483 6.3793 22.2728 7.86917 22.2728V20.0111C9.36601 21.414 11.3682 22.2728 13.5673 22.2728C15.7663 22.2728 17.7685 21.414 19.2653 20.0111V22.2728C20.757 22.2728 21.9645 21.0465 21.9645 19.5357V13.7577C21.9645 9.05404 18.2041 5.24268 13.5673 5.24268ZM13.5673 19.2053C10.6049 19.2053 8.19677 16.7616 8.19677 13.7595C8.19677 10.7574 10.6067 8.31368 13.5673 8.31368C16.5278 8.31368 18.9377 10.7574 18.9377 13.7595C18.9377 16.7616 16.5278 19.2053 13.5673 19.2053Z" fill="white"/>
<path d="M20.7011 7.80479C21.3989 7.80479 21.9645 7.23124 21.9645 6.52373C21.9645 5.81622 21.3989 5.24268 20.7011 5.24268C20.0034 5.24268 19.4378 5.81622 19.4378 6.52373C19.4378 7.23124 20.0034 7.80479 20.7011 7.80479Z" fill="white"/>
</svg>
